<svg width="70" height="70" fill="none" xmlns="http://www.w3.org/2000/svg"><rect x="8.75" y="12.25" width="57.75" height="39.375" rx="7" fill="#AAB89A"/><path d="M22.875 4.375c.501-.878.75-1.75.75-1.75s.249.872.75 1.75c.44.772 1.875 1.75 1.875 1.75s-1.434.978-1.875 1.75c-.501.878-.75 1.75-.75 1.75s-.249-.872-.75-1.75C22.435 7.103 21 6.125 21 6.125s1.434-.978 1.875-1.75Z" fill="#F6F1E4"/><path d="M26.25 14.875h30.625a7 7 0 0 1 7 7v14m-37.625-21V24.5m0-9.625h-3.5m-16.625 21V47.25a7 7 0 0 0 7 7H26.25M6.125 35.875v-14a7 7 0 0 1 7-7H14m-7.875 21h8.75m22.75 0h26.25m0 0V47.25a7 7 0 0 1-7 7H56m-29.75 0v-9.625m0 9.625H42" stroke="#547147" stroke-width="1.75" stroke-linecap="round"/><path d="M26.25 31.5a4.375 4.375 0 1 1 4.375 4.375H26.25m0-4.375a4.375 4.375 0 1 0-4.375 4.375h4.375m0-4.375v4.375m0 0L20.125 42m6.125-6.125L32.375 42" stroke="#F6F1E4" stroke-width="1.75" stroke-linecap="round"/><path d="M41.125 22.75h15.75m-13.125 3.5h10.5M17.625 11.375c.501-.878.75-1.75.75-1.75s.249.872.75 1.75c.44.773 1.875 1.75 1.875 1.75s-1.434.977-1.875 1.75c-.501.878-.75 1.75-.75 1.75s-.249-.872-.75-1.75c-.44-.773-1.875-1.75-1.875-1.75s1.434-.977 1.875-1.75Z" stroke="#547147" stroke-width="1.75" stroke-linecap="round"/><path d="M52.375 45.063c.668-1.098 1-2.188 1-2.188s.332 1.09 1 2.188c.588.965 2.5 2.187 2.5 2.187s-1.912 1.222-2.5 2.188c-.668 1.097-1 2.187-1 2.187s-.332-1.09-1-2.188c-.588-.965-2.5-2.187-2.5-2.187s1.912-1.222 2.5-2.188Z" fill="#F6F1E4"/><path d="M48 52.063c.668-1.098 1-2.188 1-2.188s.332 1.09 1 2.188c.588.965 2.5 2.187 2.5 2.187s-1.912 1.222-2.5 2.188c-.668 1.097-1 2.187-1 2.187s-.332-1.09-1-2.188c-.588-.965-2.5-2.187-2.5-2.187s1.912-1.222 2.5-2.188Z" stroke="#547147" stroke-width="1.75" stroke-linecap="round"/></svg>