<svg width="70" height="70" fill="none" xmlns="http://www.w3.org/2000/svg"><path d="M42.875 21v27.125H64.75a3.5 3.5 0 0 0 3.5-3.5V30.644c0-.404-.14-.795-.395-1.108l-8.783-10.75a3.5 3.5 0 0 0-2.71-1.286h-9.987a3.5 3.5 0 0 0-3.5 3.5Z" fill="#AAB89A"/><path d="M56.003 21.875H49a1.75 1.75 0 0 0-1.75 1.75v7.82c0 .966.783 1.75 1.75 1.75h4.302c.447 0 .877.17 1.202.477l1.824 1.725a1.75 1.75 0 0 0 1.202.478h4.595a1.75 1.75 0 0 0 1.75-1.75v-2.989a1.75 1.75 0 0 0-.394-1.105l-6.122-7.512a1.75 1.75 0 0 0-1.356-.644Z" fill="#F6F1E4"/><path d="M53.378 23.625h-7.003a1.75 1.75 0 0 0-1.75 1.75v7.82c0 .966.783 1.75 1.75 1.75h4.302c.447 0 .877.17 1.202.477l1.824 1.725a1.75 1.75 0 0 0 1.202.478H59.5a1.75 1.75 0 0 0 1.75-1.75v-2.989a1.75 1.75 0 0 0-.394-1.106l-6.122-7.51a1.75 1.75 0 0 0-1.356-.645Z" stroke="#547147" stroke-width="1.75" stroke-linecap="round"/><path d="M40.25 23.625V50.75h21.875a3.5 3.5 0 0 0 3.5-3.5V33.269c0-.404-.14-.795-.395-1.108l-8.783-10.75a3.5 3.5 0 0 0-2.71-1.286H43.75a3.5 3.5 0 0 0-3.5 3.5Z" stroke="#547147" stroke-width="1.75" stroke-linecap="round"/><path d="M39.375 9.625H10.5a3.5 3.5 0 0 0-3.5 3.5v31.5a3.5 3.5 0 0 0 3.5 3.5h32.375v-35a3.5 3.5 0 0 0-3.5-3.5Z" fill="#F6F1E4"/><path d="M40.25 50.75v-35a3.5 3.5 0 0 0-3.5-3.5H7.875a3.5 3.5 0 0 0-3.5 3.5v31.5a3.5 3.5 0 0 0 3.5 3.5H40.25Zm0 0V23.625" stroke="#547147" stroke-width="1.75" stroke-linecap="round"/><path d="M60.375 50.75a7 7 0 1 1-14 0 7 7 0 0 1 14 0ZM28 50.75a7 7 0 1 1-14 0 7 7 0 0 1 14 0Z" fill="#AAB89A" stroke="#547147" stroke-width="1.75" stroke-linecap="round"/><path d="M11.375 25.375h19.25m-15.685 5.25h15.685" stroke="#547147" stroke-width="1.75" stroke-linecap="round"/></svg>