<svg width="70" height="70" fill="none" xmlns="http://www.w3.org/2000/svg"><path d="m41.833 27.622 3.224-3.122 14.507 14.05s-1.13 2.656-3.224 4.684c-3.834 3.714-4.836 3.122-4.836 3.122s4.836 4.684 0 7.806c0 0 1.256 1.561 0 3.122-2.03 2.525-4.375.45-4.776.06.369.384 2.234 2.543-.388 4.532-.601.456-1.98.978-2.895.092-3.224 6.245-7.859.275-7.859.275l-.354-.445c-.187.215-.4.438-.64.67-2.523 2.444-3.916 3.138-5.773 1.34-1.857-1.799.056-4.378 1.164-5.451-2.052 1.839-4.395 3.867-6.535 1.794-1.833-1.775-.298-3.576 1.33-5.169-2.216 2.113-4.302 3.744-6.582 1.536-2.556-2.476.727-5.23 2.557-7.002-2.524 2.444-4.24 3.285-6.098 1.486-1.857-1.799.71-4.002 1.818-5.075.325-.315.733-.693 1.183-1.037-1.831-2.892-2.263-4.625-1.612-7.9l11.283-10.93s2.886-.481 4.708 0c2.19.579 4.963 3.122 4.963 3.122 2.443-.591 4.835-1.56 4.835-1.56Z" fill="#F6F1E4"/><rect x="4.375" y="31.823" width="25.206" height="9.625" rx="1.75" transform="rotate(-45 4.375 31.823)" fill="#AAB89A"/><rect width="25.206" height="9.625" rx="1.75" transform="scale(-1 1) rotate(-45 5.537 95.284)" fill="#AAB89A"/><path d="m43.06 25.306-.315-.304a1.75 1.75 0 0 1 0-2.514l3.932-3.809a1.75 1.75 0 0 1 2.435 0l15.215 14.737a1.75 1.75 0 0 1 0 2.514l-3.932 3.808a1.75 1.75 0 0 1-2.435 0l-.394-.382m-14.507-14.05-3.224 3.122s-2.392.97-4.835 1.561m8.06-4.683 14.506 14.05M35 29.99c-4.209 1.02-9.024 5.533-10.684 7.192a.847.847 0 0 0 .017 1.211l2.261 2.19a.875.875 0 0 0 .815.222l12.426-3.009 9.672 9.367M35 29.99s-2.773-2.544-4.963-3.122c-1.822-.481-4.708 0-4.708 0m24.178 20.295s1 .592 4.835-3.122c2.094-2.028 3.224-4.684 3.224-4.684m-8.06 7.806s4.836 4.684 0 7.806m0 0-4.835-4.684m4.836 4.684s1.255 1.561 0 3.122c-2.23 2.771-4.836 0-4.836 0m0 0-4.145-4.158m4.145 4.158s2.561 2.4-.328 4.591c-.602.457-1.98.979-2.896.093m-3.223-3.123 3.223 3.123m0 0c-3.223 6.244-7.859.275-7.859.275l-.354-.446m-9.644-7.598c2.524-2.445 3.818-4.108 1.612-6.245-2.207-2.137-4.618-.21-6.447 1.561m4.835 4.684c-2.523 2.444-4.836 4.794-7.392 2.319-2.556-2.476.728-5.231 2.557-7.003m4.835 4.684c-1.829 1.771-4.28 3.879-2.14 5.952s4.483.045 6.535-1.794m-4.395-4.158c1.83-1.772 4.395-3.954 6.447-1.562 2.053 2.393 0 3.88-2.052 5.72m-9.23-8.842c2.524-2.444 1.724-3.752.315-5.117-.996-.965-2.326-.338-3.412.492m3.097 4.625c-2.524 2.445-4.24 3.286-6.097 1.487-1.857-1.799.709-4.002 1.817-5.075.325-.315.733-.694 1.183-1.037m12.327 13.467c-1.108 1.073-3.02 3.652-1.163 5.45 1.857 1.8 3.249 1.105 5.773-1.34.24-.231.452-.455.64-.67m-5.25-3.44c1.108-1.074 3.84-2.518 5.25-1.153 1.274 1.235 1.785 2.544 0 4.593m-19.19-24.809-2.006 1.943a1.75 1.75 0 0 1-2.435 0L5.673 35.93a1.75 1.75 0 0 1 0-2.514l15.215-14.737a1.75 1.75 0 0 1 2.435 0l3.932 3.809a1.75 1.75 0 0 1 0 2.514l-1.926 1.865M14.046 37.795 25.33 26.867M14.046 37.795c-.651 3.275-.219 5.01 1.612 7.9" stroke="#547147" stroke-width="1.75" stroke-linecap="round" stroke-linejoin="round"/><path fill-rule="evenodd" clip-rule="evenodd" d="M30.52 5.027a.877.877 0 0 0-.69.946c.301 2.78.767 5.084 1.806 6.91 1.06 1.867 2.775 3.333 4.708 4.4.252.14.558.137.809-.005 2.036-1.15 3.78-2.615 4.791-4.394.983-1.729 1.423-4.013 1.722-6.853a.894.894 0 0 0-.752-.965c-.918-.156-1.719-.359-2.403-.61-.806-.295-1.92-.828-3.34-1.6a.89.89 0 0 0-.843-.003c-1.27.677-2.263 1.147-2.979 1.41-.66.242-1.604.497-2.828.764Z" fill="#F6F1E4"/><path clip-rule="evenodd" d="M28 6.94c.3 3.133.75 5.698 1.886 7.694 1.134 1.995 3.017 3.534 5.114 4.616 2.208-1.182 4.117-2.72 5.194-4.616 1.078-1.896 1.503-4.46 1.806-7.694-1.275-.165-2.355-.41-3.24-.733-.883-.324-2.137-.935-3.76-1.832-1.474.801-2.607 1.347-3.4 1.638-.794.29-1.994.6-3.6.927Z" stroke="#547147" stroke-width="1.75" stroke-linecap="round" stroke-linejoin="round"/></svg>