<svg width="70" height="70" fill="none" xmlns="http://www.w3.org/2000/svg"><path fill="#fff" d="M0 0h70v70H0z"/><path d="M48.125 44.625c10.632 0 19.25-8.618 19.25-19.25s-8.618-19.25-19.25-19.25-19.25 8.618-19.25 19.25 8.618 19.25 19.25 19.25Z" fill="#AAB89A"/><path d="M46.375 43.75c10.632 0 19.25-8.618 19.25-19.25S57.007 5.25 46.375 5.25s-19.25 8.618-19.25 19.25" stroke="#547147" stroke-width="1.75" stroke-linecap="round" stroke-linejoin="round"/><path clip-rule="evenodd" d="M45.06 38.5v-2.383c-4.363-.731-6.343-4.036-6.56-6.642l4.27-.986c.155 1.844 1.393 3.496 4.054 3.496 1.547 0 2.66-.762 2.66-2.002 0-.922-.68-1.525-1.918-1.811l-2.754-.668c-3.465-.858-5.6-3.019-5.6-6.038 0-3.56 2.599-6.006 5.848-6.578V12.25h3.558v2.733c3.404.763 4.951 3.273 5.384 5.434l-4.3 1.176c-.186-.985-.712-2.637-3.157-2.637-1.733 0-2.599 1.048-2.599 2.065 0 .858.619 1.526 1.826 1.812l2.692.603c4.146.954 5.786 3.433 5.786 6.293 0 2.924-2.042 5.657-5.632 6.324v2.383l-3.558.064Z" stroke="#F6F1E4" stroke-width="1.75" stroke-linecap="round" stroke-linejoin="round"/><path fill-rule="evenodd" clip-rule="evenodd" d="M18.606 43.976h.535c1.268 0 2.439-.686 3.007-1.82 1.059-2.117 2.658-5.626 2.94-8.016a54.13 54.13 0 0 0 .272-3.47c.138-2.704 3.09-4.271 4.815-2.184 1.033 1.248 1.83 2.703 1.845 4.223.04 4.352-1.315 6.945-1.315 6.945h10.389c2.055 0 4.35 1.042 4.34 3.106-.01 2.063-2.629 2.944-2.629 2.944s1.827.548 1.729 2.593c-.099 2.045-2.593 2.567-2.593 2.567s1.433 1.492.864 3.054c-.569 1.563-2.565 1.786-2.565 1.786s1.217 1.36.996 2.648c-.221 1.289-1.82 2.045-3.616 2.045H25.927a16.37 16.37 0 0 1-7.321-1.729" fill="#F6F1E4"/><path d="M16.856 45.726h.535c1.268 0 2.439-.686 3.007-1.82 1.059-2.117 2.658-5.626 2.94-8.016a54.13 54.13 0 0 0 .272-3.47c.138-2.704 3.09-4.271 4.815-2.184 1.033 1.248 1.83 2.703 1.845 4.223.04 4.352-1.314 6.945-1.314 6.945h10.388c2.055 0 4.35 1.042 4.34 3.106-.01 2.063-2.629 2.944-2.629 2.944s1.827.548 1.729 2.593c-.099 2.045-2.593 2.567-2.593 2.567s1.433 1.492.864 3.054c-.569 1.563-2.565 1.786-2.565 1.786s1.217 1.36.996 2.648c-.221 1.289-1.82 2.045-3.616 2.045H24.177a16.37 16.37 0 0 1-7.321-1.729v0" stroke="#547147" stroke-width="1.75" stroke-linecap="round" stroke-linejoin="round"/><path fill-rule="evenodd" clip-rule="evenodd" d="M10.569 62.125a2.333 2.333 0 0 1-2.334-2.333V43.716a2.333 2.333 0 0 1 2.334-2.333h5.704a2.333 2.333 0 0 1 2.333 2.333v16.076a2.333 2.333 0 0 1-2.333 2.333H10.57Z" fill="#AAB89A"/><path clip-rule="evenodd" d="M8.819 63.875a2.333 2.333 0 0 1-2.334-2.333V45.466a2.333 2.333 0 0 1 2.334-2.333h5.704a2.333 2.333 0 0 1 2.333 2.333v16.076a2.333 2.333 0 0 1-2.333 2.333H8.82Z" stroke="#547147" stroke-width="1.75" stroke-linecap="square"/></svg>