<svg width="124" height="27" fill="none" xmlns="http://www.w3.org/2000/svg"><path d="M16.073 19.121h.104c.59 0 1.215-.104 1.91-.347a6.887 6.887 0 0 0 2.395-1.388c1.978-1.597 2.95-3.958 2.95-7.117 0-2.117-.625-3.784-1.874-4.999-1.215-1.145-2.847-1.735-4.86-1.735-4.097 0-7.707 1.284-10.831 3.853a17.12 17.12 0 0 0-2.916 3.02c-.66.833-1.076 1.562-1.285 2.118 0 .034 0 .034-.034.034-.07 0-.174-.069-.313-.243a5.037 5.037 0 0 1-.555-.624C.278 11.033 0 10.477 0 9.957 0 7.978 1.805 5.86 5.45 3.674 9.13 1.452 12.74.34 16.246.34c2.812 0 5.103.833 6.874 2.465 1.874 1.735 2.777 4.027 2.777 6.873 0 2.638-.798 5.034-2.395 7.117-1.736 2.29-3.923 3.471-6.561 3.471a7.187 7.187 0 0 1-2.291-.347l-.903-.486a4.146 4.146 0 0 1-.556-.278c0 .139 0 .278-.034.382l-.07.312c-.173.868-.52 1.458-1.076 1.806-.173.139-.382.208-.625.277l-.277.035h-.417l-.312-.035a2.397 2.397 0 0 1-.799-.312c-.59-.382-.798-1.041-.625-1.979.104-.555.382-1.041.868-1.493.313-.277.625-.486.938-.59.034-1.076.104-2.464.277-4.2l.174-2.291c.07-.833.07-1.632.07-2.36 0-.591-.035-1.112-.07-1.563-.104-.66-.278-1.146-.486-1.493h.59l.625.035c.486.07.902.208 1.25.347.937.451 1.423 1.285 1.423 2.569 0 .07-.07.52-.209 1.32l-.104.59-.104.624c-.104.556-.173 1.042-.243 1.458-.382 2.118-.59 3.75-.66 4.93.348.66 1.285 1.18 2.778 1.596Zm-5.069 2.083c.07-.243.14-.902.244-2.048-.59.07-.973.347-1.077.903-.07.382 0 .66.243.868l.313.208c.07.07.139.07.208.07h.07Zm17.983-1.631c-.695 0-1.25-.174-1.701-.556-.486-.382-.695-.902-.695-1.562 0-.833.382-1.597 1.18-2.291.799-.694 1.736-1.076 2.847-1.076.104 0 .208 0 .347.035l.104.034h.174c.139 0 .208-.104.208-.277 0-.66-.451-1.007-1.388-1.111-.382-.035-.764 0-1.18.034-.382.07-.695.105-.938.209-.104.07-.208.034-.312-.035a.558.558 0 0 1-.174-.382c0-.59.139-1.076.382-1.423.382-.486.972-.695 1.805-.695h.556c.243.035.45.07.66.07.555.07 1.04.208 1.492.382 1.145.52 1.736 1.388 1.736 2.638-.035.313-.07.73-.07 1.25 0 .694 0 1.319.035 1.91.139 1.665.451 2.603.937 2.846v.173c0 .07 0 .104-.034.104-.07.105-.278.174-.59.174-.174 0-.313-.035-.487-.07a1.93 1.93 0 0 1-.59-.312c-.52-.382-.902-1.041-1.11-1.91-.764 1.216-1.84 1.84-3.194 1.84Zm1.319-1.701c.277 0 .555-.07.868-.243.347-.174.59-.417.763-.66-.07-.104-.104-.278-.104-.486v-.625c-.035-.52-.139-.798-.312-.798-.452 0-.903.208-1.32.66-.45.45-.659.867-.659 1.284-.07.59.208.868.764.868Z" fill="#404936"/><path d="M41.9 11.658c1.146.972 1.736 2.187 1.736 3.68 0 1.006-.278 1.909-.868 2.707-.625.938-1.458 1.424-2.5 1.424-1.18 0-2.082-.417-2.707-1.25a38.349 38.349 0 0 0-.312 3.194c-.07.416-.07.798-.07 1.18-.035.278-.035.486-.035.59 0 .174 0 .347.035.486.07.208.139.382.278.52-.59.278-1.146.209-1.736-.173-.59-.382-.868-.868-.833-1.458l.07-1.458.069-1.423c.139-1.77.208-3.472.208-5.103v-.382l-.07-.486c-.069-.382-.173-.66-.312-.833h.278l.208-.035h.209c.416 0 .763.035 1.076.07.902.208 1.388.763 1.388 1.7 0 .209 0 .382-.034.487l-.035.242-.035.313c-.035.243-.07.451-.07.66.07.416.279.798.59 1.11.383.382.765.556 1.216.556.486 0 .903-.278 1.25-.833.277-.486.382-1.007.382-1.597 0-.868-.382-1.666-1.111-2.396-.764-.798-1.597-1.11-2.57-.937l-.346.104-.278.104a1.7 1.7 0 0 1-.52.105c-.035 0-.07 0-.174-.035a2.392 2.392 0 0 1-.278-.104c-.208-.139-.313-.313-.313-.52 0-.418.209-.765.59-1.077.487-.313 1.111-.486 1.875-.486 1.423.035 2.673.451 3.75 1.354Zm10.658 8.332-.521.034a4.92 4.92 0 0 1-1.076-.104c-.799-.174-1.25-.694-1.285-1.562-1.215 1.215-2.395 1.805-3.54 1.805h-.348a1.217 1.217 0 0 1-.486-.208c-.416-.313-.59-.972-.52-1.98.104-.867.173-1.561.208-2.047.104-1.076.173-1.805.173-2.257 0-.66-.034-1.215-.104-1.736a7.161 7.161 0 0 0-.243-1.006l-.104-.313-.104-.243c-.07-.173-.104-.277-.104-.347 0-.173.104-.277.347-.277.59 0 1.18.277 1.736.833.625.625.937 1.458.937 2.464 0 1.77 0 2.951.035 3.541.035.66.104.972.278.972.242 0 .624-.312 1.214-.902.243-.209.486-.452.695-.695.173-.243.347-.416.486-.59.173-.763.278-1.562.382-2.36.104-.764.173-1.285.173-1.528 0-.173 0-.347-.035-.52-.069-.209-.138-.382-.277-.521.59-.313 1.145-.313 1.736 0 .59.347.867.902.833 1.666 0 .174-.035.417-.07.764l-.034.52-.035.521c-.07.903-.139 1.701-.174 2.36-.104 2.014 0 3.264.347 3.75h-.52v-.035Zm20.238-.869h.104c.59 0 1.215-.104 1.91-.347a6.886 6.886 0 0 0 2.395-1.388c1.979-1.597 2.95-3.958 2.95-7.117 0-2.117-.624-3.784-1.874-4.999-1.215-1.145-2.847-1.735-4.86-1.735-4.096 0-7.707 1.284-10.83 3.853a17.12 17.12 0 0 0-2.917 3.02c-.66.833-1.076 1.562-1.284 2.118 0 .034 0 .034-.035.034-.07 0-.174-.069-.312-.243a5.037 5.037 0 0 1-.556-.624c-.486-.66-.764-1.216-.764-1.736 0-1.979 1.806-4.096 5.45-6.283C65.854 1.452 69.464.34 72.97.34c2.812 0 5.103.833 6.873 2.465 1.875 1.735 2.777 4.027 2.777 6.873 0 2.638-.798 5.034-2.395 7.117-1.736 2.29-3.923 3.471-6.56 3.471a7.187 7.187 0 0 1-2.292-.347l-.903-.486a4.152 4.152 0 0 1-.555-.278c0 .139 0 .278-.035.382l-.07.312c-.173.868-.52 1.458-1.075 1.806-.174.139-.382.208-.625.277l-.278.035h-.486l-.312-.035a2.397 2.397 0 0 1-.799-.312c-.59-.382-.798-1.041-.625-1.979.105-.555.382-1.041.868-1.493.313-.277.625-.486.938-.59.034-1.076.104-2.464.277-4.2l.174-2.291c.07-.833.07-1.632.07-2.36 0-.591-.035-1.112-.07-1.563-.104-.66-.278-1.146-.486-1.493h.59l.625.035c.486.07.902.208 1.25.347.937.451 1.423 1.285 1.423 2.569 0 .07-.07.52-.209 1.32l-.104.59-.104.624c-.104.556-.173 1.042-.243 1.458-.382 2.118-.59 3.75-.66 4.93.417.66 1.355 1.18 2.847 1.596Zm-5.068 2.083c.07-.243.139-.902.243-2.048-.59.07-.972.347-1.076.903-.07.382 0 .66.243.868l.312.208c.07.07.139.07.209.07h.069Zm20.829-1.214c.034-.417.069-.8.104-1.112-.799.695-1.667 1.007-2.5 1.007-1.562 0-2.395-1.11-2.569-3.298-.069-.694-.069-1.597 0-2.777l.07-.66.034-.624c.035-.486.035-.833.035-1.111 0-.347 0-.59-.034-.764-.07-.486-.14-.833-.243-1.11h.347l.486-.036c.416 0 .763.035 1.076.105.833.208 1.25.729 1.25 1.562-.07.382-.174.763-.243 1.215l-.105.59-.069.59c-.278 1.354-.417 2.604-.417 3.784 0 .625.209.937.59.937.799 0 1.424-.416 1.875-1.215.382-.694.556-1.562.556-2.5v-.381l-.07-.486c-.07-.382-.173-.694-.312-.868h.382l.486-.035c.416 0 .763.035 1.006.104.799.209 1.215.764 1.215 1.667.07.173 0 .729-.104 1.736l-.07.694-.103.555-.035.382-.07.799c.348-.174.66-.348.972-.556.243-.139.487-.278.764-.486l.625-.382c.07.07.104.174.104.313 0 .381-.868 1.215-2.638 2.43l-.104.937-.104.937c-.07.695-.14 1.389-.209 2.014a4.31 4.31 0 0 1-.312 1.319c-.382.868-.972 1.284-1.77 1.284-.695 0-1.285-.347-1.84-1.006-.486-.66-.764-1.32-.764-2.049 0-.902.382-1.735 1.145-2.43a4.46 4.46 0 0 1 .903-.694c.139-.07.278-.173.417-.243l.208-.104.035-.035Zm-.174 3.054.07-.59.069-.66c-.59.486-.903.972-.903 1.493 0 .382.209.694.59.972a7.75 7.75 0 0 0 .174-1.215Z" fill="#404936"/><path d="M92.826 16.76c.174-1.318.243-2.394.243-3.262a8.83 8.83 0 0 0-.104-1.424 6.422 6.422 0 0 0-.277-.867l-.174-.278-.104-.243c-.07-.174-.104-.278-.104-.313 0-.173.139-.277.416-.277.59 0 1.146.243 1.736.763.66.625.972 1.424.972 2.396l-.243 4.096c0 .104 0 .208.035.278.07.208.139.312.277.312.278 0 .764-.382 1.459-1.11.624-.695 1.006-1.181 1.11-1.528.07-.625.105-1.25.105-1.875 0-.902-.14-1.631-.382-2.256l-.174-.278-.104-.243c-.07-.139-.104-.208-.104-.278 0-.173.139-.277.416-.277.59 0 1.146.243 1.736.763.66.625.972 1.424.972 2.396l-.243 4.096v.104l.035.208c.069.174.208.278.382.278h.104l.173-.07c.174-.069.313-.138.521-.277.486-.382.972-1.041 1.458-1.979.278-.798.417-1.597.521-2.43v-1.353c0-.174 0-.348-.035-.521-.069-.209-.139-.382-.278-.521l.07-.035.173-.034c.07-.035.313-.035.695-.035.381 0 .729.173 1.076.486.382.382.555.798.555 1.284.035.347 0 .938-.069 1.77l-.035.556-.035.59-.104 1.215c-.139 2.014-.035 3.264.313 3.75h-.903c-.694 0-1.215-.105-1.562-.278-.486-.243-.799-.66-.868-1.285-1.215 1.215-2.326 1.805-3.367 1.805h-.104l-.174-.034a.926.926 0 0 1-.486-.243c-.382-.347-.59-1.007-.59-1.979-.59.66-1.146 1.146-1.666 1.493-.73.486-1.458.764-2.118.764-.903.069-1.354-.66-1.32-2.118.036-.73.14-1.32.174-1.701Zm19.024-6.387c.764 0 1.389.417 1.875 1.25.451.73.659 1.528.659 2.395 0 2.396-.59 4.027-1.805 4.93a3.582 3.582 0 0 1-1.389.59 3 3 0 0 1-.555.07h-.347c-1.042 0-1.91-.452-2.604-1.32-.625-.798-.937-1.805-.937-2.95 0-1.32.382-2.535 1.145-3.61.278-.452.66-.869 1.146-1.285.208-.208.486-.208.868 0 .347.173.59.416.694.764.313-.59.695-.834 1.25-.834Zm1.146 3.784c0 .278-.105.486-.278.625a.753.753 0 0 1-.486.174c-.694 0-1.215-.313-1.562-.938-.139-.243-.209-.486-.278-.763-.069-.243-.069-.452-.069-.625-.73.729-1.111 1.666-1.111 2.777v.208c0 .14 0 .243.034.347a3.5 3.5 0 0 0 .209.868c.277.764.798 1.111 1.562 1.007h.035l.069-.035a.658.658 0 0 0 .278-.07c.277-.103.52-.277.763-.52.695-.729 1.077-1.874 1.077-3.471 0-.556-.035-.972-.105-1.285-.138-.382-.312-.625-.59-.66a.418.418 0 0 0-.416.278c-.07.174-.104.348-.07.59.07.59.243.868.59.868.209.105.348.313.348.625Zm10.483 5.833-.52.034a4.92 4.92 0 0 1-1.077-.104c-.798-.174-1.249-.694-1.284-1.562-1.215 1.215-2.395 1.805-3.541 1.805h-.347a1.217 1.217 0 0 1-.486-.208c-.417-.313-.59-.972-.521-1.98.104-.867.174-1.561.209-2.047.104-1.077.173-1.806.173-2.257 0-.66-.035-1.215-.104-1.736a7.106 7.106 0 0 0-.243-1.006l-.104-.313-.104-.243c-.07-.173-.104-.277-.104-.347 0-.173.104-.277.347-.277.59 0 1.18.277 1.735.833.625.624.938 1.458.938 2.464 0 1.77 0 2.951.034 3.541.035.66.105.972.278.972.243 0 .625-.312 1.215-.902a6.6 6.6 0 0 0 .694-.695c.174-.243.348-.416.486-.59.174-.764.278-1.562.382-2.36.104-.764.174-1.285.174-1.528 0-.173 0-.347-.035-.52-.069-.209-.139-.382-.278-.521.591-.313 1.146-.313 1.736 0 .59.347.868.902.833 1.666 0 .174-.034.417-.069.764l-.035.52-.035.521c-.069.903-.138 1.701-.173 2.36-.104 2.014 0 3.264.347 3.75h-.521v-.035Zm-1.77-11.352c-.417.347-.868.52-1.389.52-.486 0-.972-.173-1.492-.486l-.278-.173-.278-.174c-.208-.104-.382-.173-.555-.173-.174 0-.347.07-.521.243-.069.07-.104.104-.104.173l-.035.035v.035c-.278 0-.382-.104-.382-.347 0-.66.452-1.007 1.319-1.007.278-.035.625 0 1.077.035l.486.034c.173.035.312.035.381.035.105 0 .209 0 .313-.035.139-.07.278-.139.382-.243.312-.243.52-.625.59-1.18l.035.035c.069 0 .104.034.173.07.139.103.243.207.347.312.174.173.313.347.382.52.104.174.174.382.174.556 0 .486-.209.868-.625 1.215Z" fill="#404936"/></svg>