<svg width="62" height="64" fill="none" xmlns="http://www.w3.org/2000/svg"><path d="M39.014 52.814s2.265.14 3.056 3.413c0 0 .233 2.312 1.8 2.545-1.117.232-1.582.698-1.66 1.132-1.117-1.226-1.458-2.73-1.598-3.6-.14-.977-1.38-2.497-1.38-2.497l-.218-.993Z" fill="#E5880E"/><path d="M34.499 50.518s4.53-.869 6.407 2.14c2.514 4.02 5.477 3.647 7.401 2.84-1.257 1.148-1.365 2.42-1.365 2.42s-4.5.047-6.346-3.118c-1.194-1.583-2.187-1.893-2.187-1.893l-3.91-2.39Z" fill="#E8AE08"/><path d="m34.422 50.285 2.373-8.75" stroke="#404936" stroke-width=".396" stroke-miterlimit="10"/><path d="M38.797 60.416h-11.62a.606.606 0 0 1-.606-.605V51h12.846v8.796a.622.622 0 0 1-.62.621Z" fill="#61664A"/><path d="m22.569 40.573 7.648 10.162m13.808-10.162-7.633 10.162m-4.204-.45-2.374-8.75" stroke="#404936" stroke-width=".396" stroke-miterlimit="10"/><path d="M55.708 21.49c0 10.674-6.547 19.455-14.925 20.48 5.973-3.353 10.177-11.25 10.177-20.48 0-9.216-4.204-17.128-10.177-20.48 8.378 1.04 14.925 9.806 14.925 20.48ZM25.64 41.97c-8.377-1.025-14.925-9.806-14.925-20.48 0-10.674 6.548-19.455 14.925-20.48-5.973 3.352-10.177 11.264-10.177 20.48 0 9.231 4.204 17.128 10.178 20.48Z" fill="#404936"/><path d="M32.669 3.028c0-2.141-2.157-3.584-4.158-2.793-.559.217-1.117.481-1.66.791-5.973 3.351-10.178 11.264-10.178 20.48 0 9.215 4.205 17.128 10.178 20.479a16.27 16.27 0 0 0 1.66.791c1.986.791 4.158-.652 4.158-2.793V3.028Z" fill="#547147"/><path d="M28.123 48.129c-.854 2.265 4.515 2.994 4.515 2.994s-.202 2.824.418-.295c.621-3.118-1.24-5.446-1.877-5.725-.636-.31-2.203.745-3.056 3.026Zm3.708-.792c.543.543 1.132 2.622 1.132 2.622l-.186.59s-3.273-.993-2.839-1.846c.434-.854 1.365-1.909 1.893-1.366Z" fill="#E5880E"/><path d="M39.666 1.01a16.264 16.264 0 0 0-1.66-.79c-1.986-.792-4.158.651-4.158 2.792v36.956c0 2.14 2.156 3.584 4.158 2.793a12.455 12.455 0 0 0 1.66-.792c5.973-3.35 10.177-11.248 10.177-20.479 0-9.216-4.204-17.112-10.177-20.48Z" fill="#547147"/><path d="M33.615 51.65h-1.257v8.797h1.257V51.65Z" fill="#fff"/><path d="M39.428 56.196v-1.257H26.473v1.257h12.955Z" fill="#fff"/><path d="M34.763 44.98c-2.42-.218-1.66 5.15-1.66 5.15s-2.777.574.403.326c3.165-.248 4.903-2.669 5.011-3.351.11-.683-1.334-1.909-3.754-2.126Zm1.769 3.381c-.373.667-2.219 1.8-2.219 1.8l-.605-.016s.078-3.428 1.009-3.227c.93.187 2.187.776 1.815 1.443Z" fill="#E8AE08"/><path opacity=".64" d="m26.571 51.697 12.846-.016v.807l-12.846-.45v-.341Z" fill="#61664A"/><path opacity=".32" d="M33.025 64c5.836 0 10.566-.25 10.566-.559 0-.308-4.73-.558-10.566-.558-5.835 0-10.565.25-10.565.558 0 .309 4.73.559 10.565.559Z" fill="#506C44"/><path d="M39.697 51.697h-13.42a.344.344 0 0 1-.342-.341v-.962c0-.186.155-.342.342-.342h13.42c.186 0 .341.156.341.342v.962a.344.344 0 0 1-.341.34Z" fill="#3E432F"/><path d="M33.832 50.052h-1.66v1.645h1.66v-1.645Z" fill="#fff"/><path d="m50.727 42.574.187.854c.015.062.046.108.108.124l.807.326c.14.062.155.232.016.31l-.76.434a.226.226 0 0 0-.094.14l-.062.869c-.015.14-.186.217-.295.124l-.651-.574a.3.3 0 0 0-.155-.047l-.854.202a.179.179 0 0 1-.201-.248l.356-.807a.184.184 0 0 0-.015-.155l-.465-.745c-.078-.124.015-.28.17-.264l.869.094a.2.2 0 0 0 .155-.063l.559-.667c.124-.093.294-.046.325.093Zm-35.559 1.66.791.373c.047.03.109.015.171 0l.76-.435c.124-.077.28.031.264.171l-.109.869a.2.2 0 0 0 .062.155l.652.59c.109.093.062.279-.078.31l-.853.155c-.062.016-.108.047-.124.109l-.357.79c-.062.14-.248.14-.31.016l-.419-.76a.226.226 0 0 0-.14-.093l-.868-.093c-.14-.016-.202-.186-.109-.295l.605-.636c.047-.047.062-.093.047-.155l-.187-.853c-.077-.155.063-.28.202-.218ZM2.291 21.986l.062.87c0 .061.031.108.093.139l.76.45c.124.078.109.264-.015.31l-.807.326a.177.177 0 0 0-.109.124l-.186.853c-.03.14-.217.187-.31.078l-.559-.667c-.03-.047-.093-.062-.155-.062l-.868.077c-.14.016-.249-.14-.171-.263l.465-.745a.183.183 0 0 0 .016-.155l-.342-.807c-.062-.14.063-.28.202-.233l.853.218c.063.015.11 0 .156-.047l.651-.574c.078-.109.248-.031.264.108Zm56.969-9.913.668.574c.046.03.108.046.155.03l.853-.216c.14-.031.264.108.202.232l-.341.807a.184.184 0 0 0 .015.155l.465.745c.078.124-.015.28-.17.264l-.87-.078a.199.199 0 0 0-.154.062l-.559.667c-.093.109-.279.062-.31-.077l-.202-.854c-.015-.062-.046-.108-.108-.124l-.807-.325c-.14-.047-.155-.233-.031-.31l.745-.45a.163.163 0 0 0 .077-.14l.047-.87c.046-.123.217-.185.325-.092Z" fill="#E8AE08"/><path opacity=".33" d="M49.92 21.49c0-.946-.046-1.877-.139-2.808-2.265 12.893-15.064 17.314-15.84 17.578v3.692c0 2.141 2.156 3.584 4.158 2.793a12.438 12.438 0 0 0 1.66-.791C45.732 38.618 49.92 30.72 49.92 21.49Z" fill="#547147"/><path opacity=".33" d="M55.63 23.507c-1.893 5.74-6.888 10.783-8.688 12.458-1.66 2.591-3.77 4.654-6.16 6.004 7.836-.962 14.072-8.719 14.848-18.462Z" fill="#404936"/><path opacity=".33" d="M32.762 28.301c-.156 1.986-1.505 5.446-5.896 6.485-4.375 1.04-8.455-4.344-8.859-4.887 1.66 5.446 4.903 9.82 8.952 12.086.543.295 1.086.558 1.66.791 1.986.791 4.158-.652 4.158-2.793V28.301h-.015Z" fill="#547147"/><path opacity=".33" d="M16.968 37.594c2.42 2.405 5.399 3.972 8.657 4.375-4.437-2.482-7.897-7.493-9.386-13.668.79 4.189.79 7.664.729 9.293Z" fill="#404936"/><path opacity=".39" d="M28.604.235c-.559.217-1.117.481-1.66.791-4.701 2.638-8.285 8.083-9.62 14.755 1.195-3.119 5.291-11.078 15.422-9.278V3.028C32.762.887 30.59-.556 28.604.235Z" fill="#547147"/><path opacity=".39" d="M25.64 1.01c-8.098.994-14.49 9.232-14.909 19.44 2.172-9.23 8.362-13.73 9.448-14.459 1.552-2.11 3.398-3.817 5.462-4.98Z" fill="#404936"/><path opacity=".39" d="M38.72 6.146c3.986-.946 6.469.683 8.067 2.343-1.769-3.274-4.205-5.88-7.028-7.478a16.256 16.256 0 0 0-1.66-.791c-1.986-.792-4.159.65-4.159 2.792v10.441c.574-3.118 1.861-6.609 4.778-7.307Z" fill="#547147"/><path d="m50.2 14.819.015.03s-.015-.077-.062-.232c.016.078.032.14.047.202ZM48.556 4.564c-2.25-1.94-4.903-3.196-7.773-3.538 4.173 2.343 7.462 6.889 9.091 12.567-.558-2.203-1.582-6.656-1.319-9.03Z" opacity=".39" fill="#404936"/></svg>